<?xml version="1.0" standalone="no"?>
<!DOCTYPE svg PUBLIC "-//W3C//DTD SVG 20010904//EN"
 "http://www.w3.org/TR/2001/REC-SVG-20010904/DTD/svg10.dtd">
<svg version="1.0" xmlns="http://www.w3.org/2000/svg"
 width="702.000000pt" height="1280.000000pt" viewBox="0 0 702.000000 1280.000000"
 preserveAspectRatio="xMidYMid meet">
<metadata>
Created by potrace 1.15, written by Peter Selinger 2001-2017
</metadata>
<g transform="translate(0.000000,1280.000000) scale(0.100000,-0.100000)"
fill="#000000" stroke="none">
<path d="M4386 12790 c-83 -13 -194 -45 -260 -74 -31 -14 -98 -36 -149 -50
-157 -43 -286 -102 -372 -171 -22 -17 -83 -58 -135 -90 -390 -236 -682 -629
-824 -1105 l-26 -85 -89 -64 c-49 -35 -105 -80 -125 -100 -58 -60 -144 -182
-183 -259 -31 -63 -37 -85 -41 -159 -4 -81 -1 -109 34 -258 23 -97 75 -195
142 -266 103 -110 239 -176 463 -225 l132 -28 -6 -294 -6 -295 33 -71 c19 -39
48 -95 65 -124 l32 -52 -25 -10 c-14 -5 -118 -48 -231 -95 -114 -47 -217 -85
-229 -84 -64 5 -79 -18 -91 -136 -4 -38 -11 -78 -15 -90 -4 -12 -295 -421
-646 -910 -375 -523 -639 -902 -642 -918 -4 -23 4 -36 46 -75 l51 -47 -61 -95
c-33 -52 -61 -96 -62 -97 -1 -1 -78 12 -172 30 -211 41 -354 44 -448 9 -170
-62 -318 -200 -420 -393 -166 -312 -166 -652 2 -871 42 -55 48 -58 227 -84 66
-9 132 -23 147 -30 15 -8 37 -14 50 -14 13 0 151 -57 307 -126 l284 -127 136
6 c167 7 259 30 383 94 252 130 391 389 376 697 -6 112 -45 248 -99 343 -33
60 -34 63 -16 87 13 18 16 17 56 -9 59 -40 83 -29 139 63 25 40 47 71 48 69 2
-2 -16 -154 -40 -337 -28 -209 -41 -342 -36 -356 5 -11 29 -33 54 -48 l46 -27
0 -319 0 -319 26 -20 c15 -12 30 -21 35 -21 4 0 19 -4 33 -10 l25 -9 -24 -70
c-39 -116 -57 -227 -57 -351 0 -197 43 -364 148 -573 l54 -108 0 -423 c0 -233
-3 -531 -7 -664 l-6 -241 -166 -56 c-91 -30 -180 -55 -197 -55 -18 0 -38 -8
-48 -19 -16 -18 -18 -59 -23 -458 -4 -360 -3 -441 8 -455 12 -15 1418 -626
1490 -648 18 -5 35 -3 50 6 25 14 149 74 154 74 1 0 5 -20 7 -45 3 -25 11 -51
17 -59 7 -8 155 -71 329 -140 974 -384 1157 -456 1174 -456 9 0 25 8 35 18 14
15 725 285 1453 552 45 17 82 37 92 51 15 22 17 114 28 944 6 506 15 1154 19
1440 7 513 7 521 -15 626 -42 200 -132 428 -205 521 l-31 38 44 18 c23 11 80
34 126 53 132 53 122 24 122 348 l0 279 25 6 c14 4 32 17 40 29 14 21 10 64
-45 482 l-60 458 66 146 c80 177 103 258 111 381 11 187 -29 311 -234 709
l-136 265 -74 560 c-40 307 -70 569 -67 581 12 49 -23 67 -391 201 -192 70
-354 131 -358 134 -5 4 15 34 43 66 94 108 169 239 208 364 39 128 45 206 37
535 l-7 310 79 52 c146 96 268 234 351 398 40 80 46 99 49 170 4 65 -1 101
-25 195 -27 106 -112 309 -145 349 -7 9 -26 59 -41 111 -120 412 -318 723
-586 920 -46 34 -91 72 -99 84 -90 136 -314 247 -615 305 -56 11 -118 27 -140
36 -119 50 -346 76 -480 55z"/>
</g>
</svg>
